<?xml version="1.0" encoding="UTF-8"?>
<svg width="36px" height="36px" viewBox="0 0 36 36" version="1.1" xmlns="http://www.w3.org/2000/svg" xmlns:xlink="http://www.w3.org/1999/xlink">
    <!-- Generator: Sketch 42 (36781) - http://www.bohemiancoding.com/sketch -->
    <title>Shape Copy 80</title>
    <desc>Created with Sketch.</desc>
    <defs></defs>
    <g id="mobile-app-staff" stroke="none" stroke-width="1" fill="none" fill-rule="evenodd">
        <g id="track&amp;task" transform="translate(-133.000000, -712.000000)" fill="#9B9B9B">
            <path d="M165,712 L137,712 C134.8,712 133,713.8 133,716 L133,744 C133,746.2 134.8,748 137,748 L165,748 C167.2,748 169,746.2 169,744 L169,716 C169,713.8 167.2,712 165,712 L165,712 Z M145,740 L141,740 L141,736 L145,736 L145,740 L145,740 Z M145,732 L141,732 L141,728 L145,728 L145,732 L145,732 Z M145,724 L141,724 L141,720 L145,720 L145,724 L145,724 Z M161,740 L147,740 L147,736 L161,736 L161,740 L161,740 Z M161,732 L147,732 L147,728 L161,728 L161,732 L161,732 Z M161,724 L147,724 L147,720 L161,720 L161,724 L161,724 Z" id="Shape-Copy-80"></path>
        </g>
    </g>
</svg>